# xmcd
# 
# Track frame offsets:
#     150
#     18210
#     33447
#     48272
#     62171
#     81728
#     95616
# 
# Disc length: 1580
# 
# Revision: 0
# Processed by: cddbd v1.5.2PL0 Copyright (c) Steve Scherf et al.
# Submitted via: fre:ac v1.0.31
# 
DISCID=56062a07
DTITLE=Avi Kaplan - I'll Get By
DYEAR=0
DGENRE=Country
TTITLE0=Change On The Rise
TTITLE1=I'll Get By
TTITLE2=It Knows Me
TTITLE3=Sweet Adeline Pt. 2
TTITLE4=Chains
TTITLE5=Born In California
TTITLE6=Full Moon
EXTD=
EXTT0=
EXTT1=
EXTT2=
EXTT3=
EXTT4=
EXTT5=
EXTT6=
PLAYORDER=
